<svg xmlns="http://www.w3.org/2000/svg" viewBox="0 0 64 64" fill="none">
  <!-- TV Frame -->
  <rect x="4" y="8" width="56" height="40" rx="6" stroke="#3B82F6" stroke-width="3" fill="none" />

  <!-- Screen inner border -->
  <rect x="10" y="14" width="44" height="28" rx="2" stroke="#60A5FA" stroke-width="1.5" fill="none" opacity="0.5" />

  <!-- Programming blocks row 1 -->
  <rect x="14" y="18" width="10" height="6" rx="1" fill="#10B981" />
  <rect x="26" y="18" width="14" height="6" rx="1" fill="#F59E0B" />
  <rect x="42" y="18" width="8" height="6" rx="1" fill="#EF4444" />

  <!-- Programming blocks row 2 -->
  <rect x="14" y="26" width="16" height="6" rx="1" fill="#8B5CF6" />
  <rect x="32" y="26" width="18" height="6" rx="1" fill="#3B82F6" />

  <!-- Programming blocks row 3 -->
  <rect x="14" y="34" width="8" height="4" rx="1" fill="#EC4899" />
  <rect x="24" y="34" width="12" height="4" rx="1" fill="#06B6D4" />
  <rect x="38" y="34" width="12" height="4" rx="1" fill="#F97316" />

  <!-- Stand -->
  <path d="M24 48 L24 52 L20 56 L44 56 L40 52 L40 48" stroke="#3B82F6" stroke-width="2.5" fill="none" stroke-linecap="round" stroke-linejoin="round" />
</svg>
